<mxfile host="app.diagrams.net" agent="Mozilla/5.0 (X11; Linux x86_64) AppleWebKit/537.36 (KHTML, like Gecko) Chrome/134.0.0.0 Safari/537.36" version="26.1.3">
  <diagram name="PÃ¡gina-1" id="1IMUEJPbPDFgA2b0VBVU">
    <mxGraphModel dx="1500" dy="769" grid="1" gridSize="10" guides="1" tooltips="1" connect="1" arrows="1" fold="1" page="1" pageScale="1" pageWidth="827" pageHeight="1169" math="0" shadow="0">
      <root>
        <mxCell id="0" />
        <mxCell id="1" parent="0" />
        <mxCell id="VJPvkBXv1sEeALIUGJ7w-1" value="API Gateway" style="whiteSpace=wrap;strokeWidth=2;" parent="1" vertex="1">
          <mxGeometry x="1586" y="20" width="153" height="54" as="geometry" />
        </mxCell>
        <mxCell id="VJPvkBXv1sEeALIUGJ7w-2" value="Service Discovery" style="whiteSpace=wrap;strokeWidth=2;" parent="1" vertex="1">
          <mxGeometry x="1180" y="748" width="188" height="54" as="geometry" />
        </mxCell>
        <mxCell id="VJPvkBXv1sEeALIUGJ7w-3" value="Config Server" style="whiteSpace=wrap;strokeWidth=2;" parent="1" vertex="1">
          <mxGeometry x="1418" y="748" width="158" height="54" as="geometry" />
        </mxCell>
        <mxCell id="VJPvkBXv1sEeALIUGJ7w-4" value="Auth Service" style="whiteSpace=wrap;strokeWidth=2;" parent="1" vertex="1">
          <mxGeometry x="115" y="124" width="151" height="54" as="geometry" />
        </mxCell>
        <mxCell id="VJPvkBXv1sEeALIUGJ7w-5" value="User Management" style="whiteSpace=wrap;strokeWidth=2;" parent="1" vertex="1">
          <mxGeometry x="367" y="228" width="192" height="54" as="geometry" />
        </mxCell>
        <mxCell id="VJPvkBXv1sEeALIUGJ7w-6" value="Accounts Service" style="whiteSpace=wrap;strokeWidth=2;" parent="1" vertex="1">
          <mxGeometry x="818" y="332" width="184" height="54" as="geometry" />
        </mxCell>
        <mxCell id="VJPvkBXv1sEeALIUGJ7w-7" value="Transactions Service" style="whiteSpace=wrap;strokeWidth=2;" parent="1" vertex="1">
          <mxGeometry x="1125" y="436" width="209" height="54" as="geometry" />
        </mxCell>
        <mxCell id="VJPvkBXv1sEeALIUGJ7w-8" value="Budget &amp; Planning" style="whiteSpace=wrap;strokeWidth=2;" parent="1" vertex="1">
          <mxGeometry x="1521" y="540" width="193" height="54" as="geometry" />
        </mxCell>
        <mxCell id="VJPvkBXv1sEeALIUGJ7w-9" value="Analytics Service" style="whiteSpace=wrap;strokeWidth=2;" parent="1" vertex="1">
          <mxGeometry x="1946" y="644" width="182" height="54" as="geometry" />
        </mxCell>
        <mxCell id="VJPvkBXv1sEeALIUGJ7w-10" value="Notification Service" style="whiteSpace=wrap;strokeWidth=2;" parent="1" vertex="1">
          <mxGeometry x="1938" y="540" width="197" height="54" as="geometry" />
        </mxCell>
        <mxCell id="VJPvkBXv1sEeALIUGJ7w-11" value="Integration Service" style="whiteSpace=wrap;strokeWidth=2;" parent="1" vertex="1">
          <mxGeometry x="2296" y="644" width="193" height="54" as="geometry" />
        </mxCell>
        <mxCell id="VJPvkBXv1sEeALIUGJ7w-12" value="MongoDB - Auth" style="whiteSpace=wrap;strokeWidth=2;" parent="1" vertex="1">
          <mxGeometry x="20" y="228" width="177" height="54" as="geometry" />
        </mxCell>
        <mxCell id="VJPvkBXv1sEeALIUGJ7w-13" value="MongoDB - User" style="whiteSpace=wrap;strokeWidth=2;" parent="1" vertex="1">
          <mxGeometry x="291" y="332" width="179" height="54" as="geometry" />
        </mxCell>
        <mxCell id="VJPvkBXv1sEeALIUGJ7w-14" value="MongoDB - Accounts" style="whiteSpace=wrap;strokeWidth=2;" parent="1" vertex="1">
          <mxGeometry x="560" y="436" width="210" height="54" as="geometry" />
        </mxCell>
        <mxCell id="VJPvkBXv1sEeALIUGJ7w-15" value="MongoDB - Transactions" style="whiteSpace=wrap;strokeWidth=2;" parent="1" vertex="1">
          <mxGeometry x="860" y="540" width="236" height="54" as="geometry" />
        </mxCell>
        <mxCell id="VJPvkBXv1sEeALIUGJ7w-16" value="MongoDB - Budget" style="whiteSpace=wrap;strokeWidth=2;" parent="1" vertex="1">
          <mxGeometry x="1284" y="644" width="196" height="54" as="geometry" />
        </mxCell>
        <mxCell id="VJPvkBXv1sEeALIUGJ7w-17" value="MongoDB - Analytics" style="whiteSpace=wrap;strokeWidth=2;" parent="1" vertex="1">
          <mxGeometry x="1990" y="748" width="209" height="54" as="geometry" />
        </mxCell>
        <mxCell id="VJPvkBXv1sEeALIUGJ7w-18" value="MongoDB - Notification" style="whiteSpace=wrap;strokeWidth=2;" parent="1" vertex="1">
          <mxGeometry x="1672" y="644" width="225" height="54" as="geometry" />
        </mxCell>
        <mxCell id="VJPvkBXv1sEeALIUGJ7w-19" value="MongoDB - Integration" style="whiteSpace=wrap;strokeWidth=2;" parent="1" vertex="1">
          <mxGeometry x="2272" y="748" width="221" height="54" as="geometry" />
        </mxCell>
        <mxCell id="VJPvkBXv1sEeALIUGJ7w-20" value="" style="curved=1;startArrow=none;endArrow=block;exitX=0;exitY=0.55;entryX=0.5;entryY=0;rounded=0;" parent="1" source="VJPvkBXv1sEeALIUGJ7w-1" target="VJPvkBXv1sEeALIUGJ7w-4" edge="1">
          <mxGeometry relative="1" as="geometry">
            <Array as="points">
              <mxPoint x="191" y="99" />
            </Array>
          </mxGeometry>
        </mxCell>
        <mxCell id="VJPvkBXv1sEeALIUGJ7w-21" value="" style="curved=1;startArrow=none;endArrow=block;exitX=0;exitY=0.75;entryX=1;entryY=0.4;rounded=0;" parent="1" source="VJPvkBXv1sEeALIUGJ7w-1" target="VJPvkBXv1sEeALIUGJ7w-5" edge="1">
          <mxGeometry relative="1" as="geometry">
            <Array as="points">
              <mxPoint x="1371" y="99" />
              <mxPoint x="1371" y="203" />
            </Array>
          </mxGeometry>
        </mxCell>
        <mxCell id="VJPvkBXv1sEeALIUGJ7w-22" value="" style="curved=1;startArrow=none;endArrow=block;exitX=1;exitY=0.63;entryX=1;entryY=0.43;rounded=0;" parent="1" source="VJPvkBXv1sEeALIUGJ7w-1" target="VJPvkBXv1sEeALIUGJ7w-6" edge="1">
          <mxGeometry relative="1" as="geometry">
            <Array as="points">
              <mxPoint x="2252" y="99" />
              <mxPoint x="2252" y="307" />
            </Array>
          </mxGeometry>
        </mxCell>
        <mxCell id="VJPvkBXv1sEeALIUGJ7w-23" value="" style="curved=1;startArrow=none;endArrow=block;exitX=1;exitY=0.61;entryX=1;entryY=0.41;rounded=0;" parent="1" source="VJPvkBXv1sEeALIUGJ7w-1" target="VJPvkBXv1sEeALIUGJ7w-7" edge="1">
          <mxGeometry relative="1" as="geometry">
            <Array as="points">
              <mxPoint x="2313" y="99" />
              <mxPoint x="2313" y="411" />
            </Array>
          </mxGeometry>
        </mxCell>
        <mxCell id="VJPvkBXv1sEeALIUGJ7w-24" value="" style="curved=1;startArrow=none;endArrow=block;exitX=1;exitY=0.61;entryX=1;entryY=0.37;rounded=0;" parent="1" source="VJPvkBXv1sEeALIUGJ7w-1" target="VJPvkBXv1sEeALIUGJ7w-8" edge="1">
          <mxGeometry relative="1" as="geometry">
            <Array as="points">
              <mxPoint x="2333" y="99" />
              <mxPoint x="2333" y="515" />
            </Array>
          </mxGeometry>
        </mxCell>
        <mxCell id="VJPvkBXv1sEeALIUGJ7w-25" value="" style="curved=1;startArrow=none;endArrow=block;exitX=1;exitY=0.61;entryX=1;entryY=0.22;rounded=0;" parent="1" source="VJPvkBXv1sEeALIUGJ7w-1" target="VJPvkBXv1sEeALIUGJ7w-9" edge="1">
          <mxGeometry relative="1" as="geometry">
            <Array as="points">
              <mxPoint x="2353" y="99" />
              <mxPoint x="2353" y="619" />
            </Array>
          </mxGeometry>
        </mxCell>
        <mxCell id="VJPvkBXv1sEeALIUGJ7w-26" value="" style="curved=1;startArrow=none;endArrow=block;exitX=1;exitY=0.6;entryX=1;entryY=0.22;rounded=0;" parent="1" source="VJPvkBXv1sEeALIUGJ7w-1" target="VJPvkBXv1sEeALIUGJ7w-10" edge="1">
          <mxGeometry relative="1" as="geometry">
            <Array as="points">
              <mxPoint x="2373" y="99" />
              <mxPoint x="2373" y="515" />
            </Array>
          </mxGeometry>
        </mxCell>
        <mxCell id="VJPvkBXv1sEeALIUGJ7w-27" value="" style="curved=1;startArrow=none;endArrow=block;exitX=1;exitY=0.6;entryX=0.5;entryY=0;rounded=0;" parent="1" source="VJPvkBXv1sEeALIUGJ7w-1" target="VJPvkBXv1sEeALIUGJ7w-11" edge="1">
          <mxGeometry relative="1" as="geometry">
            <Array as="points">
              <mxPoint x="2393" y="99" />
            </Array>
          </mxGeometry>
        </mxCell>
        <mxCell id="VJPvkBXv1sEeALIUGJ7w-28" value="" style="curved=1;startArrow=none;endArrow=block;exitX=0.22;exitY=1;entryX=0.5;entryY=0;rounded=0;" parent="1" source="VJPvkBXv1sEeALIUGJ7w-4" target="VJPvkBXv1sEeALIUGJ7w-12" edge="1">
          <mxGeometry relative="1" as="geometry">
            <Array as="points">
              <mxPoint x="109" y="203" />
            </Array>
          </mxGeometry>
        </mxCell>
        <mxCell id="VJPvkBXv1sEeALIUGJ7w-29" value="" style="curved=1;startArrow=none;endArrow=block;exitX=0.27;exitY=1;entryX=0.5;entryY=0;rounded=0;" parent="1" source="VJPvkBXv1sEeALIUGJ7w-5" target="VJPvkBXv1sEeALIUGJ7w-13" edge="1">
          <mxGeometry relative="1" as="geometry">
            <Array as="points">
              <mxPoint x="380" y="307" />
            </Array>
          </mxGeometry>
        </mxCell>
        <mxCell id="VJPvkBXv1sEeALIUGJ7w-30" value="" style="curved=1;startArrow=none;endArrow=block;exitX=0;exitY=0.86;entryX=0.5;entryY=0;rounded=0;" parent="1" source="VJPvkBXv1sEeALIUGJ7w-6" target="VJPvkBXv1sEeALIUGJ7w-14" edge="1">
          <mxGeometry relative="1" as="geometry">
            <Array as="points">
              <mxPoint x="665" y="411" />
            </Array>
          </mxGeometry>
        </mxCell>
        <mxCell id="VJPvkBXv1sEeALIUGJ7w-31" value="" style="curved=1;startArrow=none;endArrow=block;exitX=0;exitY=0.9;entryX=0.5;entryY=0;rounded=0;" parent="1" source="VJPvkBXv1sEeALIUGJ7w-7" target="VJPvkBXv1sEeALIUGJ7w-15" edge="1">
          <mxGeometry relative="1" as="geometry">
            <Array as="points">
              <mxPoint x="978" y="515" />
            </Array>
          </mxGeometry>
        </mxCell>
        <mxCell id="VJPvkBXv1sEeALIUGJ7w-32" value="" style="curved=1;startArrow=none;endArrow=block;exitX=0;exitY=0.89;entryX=0.5;entryY=0;rounded=0;" parent="1" source="VJPvkBXv1sEeALIUGJ7w-8" target="VJPvkBXv1sEeALIUGJ7w-16" edge="1">
          <mxGeometry relative="1" as="geometry">
            <Array as="points">
              <mxPoint x="1382" y="619" />
            </Array>
          </mxGeometry>
        </mxCell>
        <mxCell id="VJPvkBXv1sEeALIUGJ7w-33" value="" style="curved=1;startArrow=none;endArrow=block;exitX=0.23;exitY=1;entryX=0.13;entryY=0;rounded=0;" parent="1" source="VJPvkBXv1sEeALIUGJ7w-9" target="VJPvkBXv1sEeALIUGJ7w-17" edge="1">
          <mxGeometry relative="1" as="geometry">
            <Array as="points">
              <mxPoint x="1944" y="723" />
            </Array>
          </mxGeometry>
        </mxCell>
        <mxCell id="VJPvkBXv1sEeALIUGJ7w-34" value="" style="curved=1;startArrow=none;endArrow=block;exitX=0.2;exitY=1;entryX=0.82;entryY=0;rounded=0;" parent="1" source="VJPvkBXv1sEeALIUGJ7w-10" target="VJPvkBXv1sEeALIUGJ7w-18" edge="1">
          <mxGeometry relative="1" as="geometry">
            <Array as="points">
              <mxPoint x="1924" y="619" />
            </Array>
          </mxGeometry>
        </mxCell>
        <mxCell id="VJPvkBXv1sEeALIUGJ7w-35" value="" style="curved=1;startArrow=none;endArrow=block;exitX=0.28;exitY=1;entryX=0.33;entryY=0;rounded=0;" parent="1" source="VJPvkBXv1sEeALIUGJ7w-11" target="VJPvkBXv1sEeALIUGJ7w-19" edge="1">
          <mxGeometry relative="1" as="geometry">
            <Array as="points">
              <mxPoint x="2309" y="723" />
            </Array>
          </mxGeometry>
        </mxCell>
        <mxCell id="VJPvkBXv1sEeALIUGJ7w-36" value="" style="curved=1;startArrow=none;endArrow=block;exitX=0.64;exitY=1;entryX=0;entryY=0.41;rounded=0;" parent="1" source="VJPvkBXv1sEeALIUGJ7w-4" target="VJPvkBXv1sEeALIUGJ7w-2" edge="1">
          <mxGeometry relative="1" as="geometry">
            <Array as="points">
              <mxPoint x="232" y="203" />
              <mxPoint x="232" y="723" />
            </Array>
          </mxGeometry>
        </mxCell>
        <mxCell id="VJPvkBXv1sEeALIUGJ7w-37" value="" style="curved=1;startArrow=none;endArrow=block;exitX=0.61;exitY=1;entryX=0;entryY=0.38;rounded=0;" parent="1" source="VJPvkBXv1sEeALIUGJ7w-5" target="VJPvkBXv1sEeALIUGJ7w-2" edge="1">
          <mxGeometry relative="1" as="geometry">
            <Array as="points">
              <mxPoint x="505" y="307" />
              <mxPoint x="505" y="723" />
            </Array>
          </mxGeometry>
        </mxCell>
        <mxCell id="VJPvkBXv1sEeALIUGJ7w-38" value="" style="curved=1;startArrow=none;endArrow=block;exitX=0.2;exitY=1;entryX=0;entryY=0.31;rounded=0;" parent="1" source="VJPvkBXv1sEeALIUGJ7w-6" target="VJPvkBXv1sEeALIUGJ7w-2" edge="1">
          <mxGeometry relative="1" as="geometry">
            <Array as="points">
              <mxPoint x="805" y="411" />
              <mxPoint x="805" y="723" />
            </Array>
          </mxGeometry>
        </mxCell>
        <mxCell id="VJPvkBXv1sEeALIUGJ7w-39" value="" style="curved=1;startArrow=none;endArrow=block;exitX=0.26;exitY=1;entryX=0.11;entryY=0;rounded=0;" parent="1" source="VJPvkBXv1sEeALIUGJ7w-7" target="VJPvkBXv1sEeALIUGJ7w-2" edge="1">
          <mxGeometry relative="1" as="geometry">
            <Array as="points">
              <mxPoint x="1131" y="515" />
              <mxPoint x="1131" y="723" />
            </Array>
          </mxGeometry>
        </mxCell>
        <mxCell id="VJPvkBXv1sEeALIUGJ7w-40" value="" style="curved=1;startArrow=none;endArrow=block;exitX=0.23;exitY=1;entryX=1;entryY=0.12;rounded=0;" parent="1" source="VJPvkBXv1sEeALIUGJ7w-8" target="VJPvkBXv1sEeALIUGJ7w-2" edge="1">
          <mxGeometry relative="1" as="geometry">
            <Array as="points">
              <mxPoint x="1515" y="619" />
              <mxPoint x="1515" y="723" />
            </Array>
          </mxGeometry>
        </mxCell>
        <mxCell id="VJPvkBXv1sEeALIUGJ7w-41" value="" style="curved=1;startArrow=none;endArrow=block;exitX=0.29;exitY=1;entryX=1;entryY=0.37;rounded=0;" parent="1" source="VJPvkBXv1sEeALIUGJ7w-9" target="VJPvkBXv1sEeALIUGJ7w-2" edge="1">
          <mxGeometry relative="1" as="geometry">
            <Array as="points">
              <mxPoint x="1964" y="723" />
            </Array>
          </mxGeometry>
        </mxCell>
        <mxCell id="VJPvkBXv1sEeALIUGJ7w-42" value="" style="curved=1;startArrow=none;endArrow=block;exitX=0.83;exitY=1;entryX=1;entryY=0.4;rounded=0;" parent="1" source="VJPvkBXv1sEeALIUGJ7w-10" target="VJPvkBXv1sEeALIUGJ7w-2" edge="1">
          <mxGeometry relative="1" as="geometry">
            <Array as="points">
              <mxPoint x="2163" y="619" />
              <mxPoint x="2163" y="723" />
            </Array>
          </mxGeometry>
        </mxCell>
        <mxCell id="VJPvkBXv1sEeALIUGJ7w-43" value="" style="curved=1;startArrow=none;endArrow=block;exitX=0.33;exitY=1;entryX=1;entryY=0.41;rounded=0;" parent="1" source="VJPvkBXv1sEeALIUGJ7w-11" target="VJPvkBXv1sEeALIUGJ7w-2" edge="1">
          <mxGeometry relative="1" as="geometry">
            <Array as="points">
              <mxPoint x="2329" y="723" />
            </Array>
          </mxGeometry>
        </mxCell>
        <mxCell id="VJPvkBXv1sEeALIUGJ7w-44" value="" style="curved=1;startArrow=none;endArrow=block;exitX=0.71;exitY=1;entryX=0;entryY=0.44;rounded=0;" parent="1" source="VJPvkBXv1sEeALIUGJ7w-4" target="VJPvkBXv1sEeALIUGJ7w-3" edge="1">
          <mxGeometry relative="1" as="geometry">
            <Array as="points">
              <mxPoint x="252" y="203" />
              <mxPoint x="252" y="723" />
            </Array>
          </mxGeometry>
        </mxCell>
        <mxCell id="VJPvkBXv1sEeALIUGJ7w-45" value="" style="curved=1;startArrow=none;endArrow=block;exitX=0.67;exitY=1;entryX=0;entryY=0.42;rounded=0;" parent="1" source="VJPvkBXv1sEeALIUGJ7w-5" target="VJPvkBXv1sEeALIUGJ7w-3" edge="1">
          <mxGeometry relative="1" as="geometry">
            <Array as="points">
              <mxPoint x="525" y="307" />
              <mxPoint x="525" y="723" />
            </Array>
          </mxGeometry>
        </mxCell>
        <mxCell id="VJPvkBXv1sEeALIUGJ7w-46" value="" style="curved=1;startArrow=none;endArrow=block;exitX=0.26;exitY=1;entryX=0;entryY=0.39;rounded=0;" parent="1" source="VJPvkBXv1sEeALIUGJ7w-6" target="VJPvkBXv1sEeALIUGJ7w-3" edge="1">
          <mxGeometry relative="1" as="geometry">
            <Array as="points">
              <mxPoint x="825" y="411" />
              <mxPoint x="825" y="723" />
            </Array>
          </mxGeometry>
        </mxCell>
        <mxCell id="VJPvkBXv1sEeALIUGJ7w-47" value="" style="curved=1;startArrow=none;endArrow=block;exitX=0.55;exitY=1;entryX=0;entryY=0.19;rounded=0;" parent="1" source="VJPvkBXv1sEeALIUGJ7w-7" target="VJPvkBXv1sEeALIUGJ7w-3" edge="1">
          <mxGeometry relative="1" as="geometry">
            <Array as="points">
              <mxPoint x="1249" y="515" />
              <mxPoint x="1249" y="723" />
            </Array>
          </mxGeometry>
        </mxCell>
        <mxCell id="VJPvkBXv1sEeALIUGJ7w-48" value="" style="curved=1;startArrow=none;endArrow=block;exitX=0.55;exitY=1;entryX=0.96;entryY=0;rounded=0;" parent="1" source="VJPvkBXv1sEeALIUGJ7w-8" target="VJPvkBXv1sEeALIUGJ7w-3" edge="1">
          <mxGeometry relative="1" as="geometry">
            <Array as="points">
              <mxPoint x="1637" y="619" />
              <mxPoint x="1637" y="723" />
            </Array>
          </mxGeometry>
        </mxCell>
        <mxCell id="VJPvkBXv1sEeALIUGJ7w-49" value="" style="curved=1;startArrow=none;endArrow=block;exitX=0.65;exitY=1;entryX=1;entryY=0.37;rounded=0;" parent="1" source="VJPvkBXv1sEeALIUGJ7w-9" target="VJPvkBXv1sEeALIUGJ7w-3" edge="1">
          <mxGeometry relative="1" as="geometry">
            <Array as="points">
              <mxPoint x="2090" y="723" />
            </Array>
          </mxGeometry>
        </mxCell>
        <mxCell id="VJPvkBXv1sEeALIUGJ7w-50" value="" style="curved=1;startArrow=none;endArrow=block;exitX=1;exitY=0.98;entryX=1;entryY=0.4;rounded=0;" parent="1" source="VJPvkBXv1sEeALIUGJ7w-10" target="VJPvkBXv1sEeALIUGJ7w-3" edge="1">
          <mxGeometry relative="1" as="geometry">
            <Array as="points">
              <mxPoint x="2236" y="619" />
              <mxPoint x="2236" y="723" />
            </Array>
          </mxGeometry>
        </mxCell>
        <mxCell id="VJPvkBXv1sEeALIUGJ7w-51" value="" style="curved=1;startArrow=none;endArrow=block;exitX=0.58;exitY=1;entryX=1;entryY=0.42;rounded=0;" parent="1" source="VJPvkBXv1sEeALIUGJ7w-11" target="VJPvkBXv1sEeALIUGJ7w-3" edge="1">
          <mxGeometry relative="1" as="geometry">
            <Array as="points">
              <mxPoint x="2423" y="723" />
            </Array>
          </mxGeometry>
        </mxCell>
        <mxCell id="VJPvkBXv1sEeALIUGJ7w-52" value="" style="curved=1;startArrow=none;endArrow=block;exitX=0.97;exitY=1;entryX=0.13;entryY=0;rounded=0;" parent="1" source="VJPvkBXv1sEeALIUGJ7w-4" target="VJPvkBXv1sEeALIUGJ7w-5" edge="1">
          <mxGeometry relative="1" as="geometry">
            <Array as="points">
              <mxPoint x="328" y="203" />
            </Array>
          </mxGeometry>
        </mxCell>
        <mxCell id="VJPvkBXv1sEeALIUGJ7w-53" value="" style="curved=1;startArrow=none;endArrow=block;exitX=0.88;exitY=1;entryX=0;entryY=0.21;rounded=0;" parent="1" source="VJPvkBXv1sEeALIUGJ7w-5" target="VJPvkBXv1sEeALIUGJ7w-6" edge="1">
          <mxGeometry relative="1" as="geometry">
            <Array as="points">
              <mxPoint x="605" y="307" />
            </Array>
          </mxGeometry>
        </mxCell>
        <mxCell id="VJPvkBXv1sEeALIUGJ7w-54" value="" style="curved=1;startArrow=none;endArrow=block;exitX=1;exitY=0.78;entryX=0.5;entryY=0;rounded=0;" parent="1" source="VJPvkBXv1sEeALIUGJ7w-6" target="VJPvkBXv1sEeALIUGJ7w-7" edge="1">
          <mxGeometry relative="1" as="geometry">
            <Array as="points">
              <mxPoint x="1230" y="411" />
            </Array>
          </mxGeometry>
        </mxCell>
        <mxCell id="VJPvkBXv1sEeALIUGJ7w-55" value="" style="curved=1;startArrow=none;endArrow=block;exitX=1;exitY=0.76;entryX=0.5;entryY=0;rounded=0;" parent="1" source="VJPvkBXv1sEeALIUGJ7w-7" target="VJPvkBXv1sEeALIUGJ7w-8" edge="1">
          <mxGeometry relative="1" as="geometry">
            <Array as="points">
              <mxPoint x="1617" y="515" />
            </Array>
          </mxGeometry>
        </mxCell>
        <mxCell id="VJPvkBXv1sEeALIUGJ7w-56" value="" style="curved=1;startArrow=none;endArrow=block;exitX=1;exitY=0.82;entryX=0.12;entryY=0;rounded=0;" parent="1" source="VJPvkBXv1sEeALIUGJ7w-8" target="VJPvkBXv1sEeALIUGJ7w-9" edge="1">
          <mxGeometry relative="1" as="geometry">
            <Array as="points">
              <mxPoint x="1904" y="619" />
            </Array>
          </mxGeometry>
        </mxCell>
        <mxCell id="VJPvkBXv1sEeALIUGJ7w-57" value="" style="curved=1;startArrow=none;endArrow=block;exitX=1;exitY=0.58;entryX=0.5;entryY=0;rounded=0;" parent="1" source="VJPvkBXv1sEeALIUGJ7w-6" target="VJPvkBXv1sEeALIUGJ7w-10" edge="1">
          <mxGeometry relative="1" as="geometry">
            <Array as="points">
              <mxPoint x="2036" y="411" />
            </Array>
          </mxGeometry>
        </mxCell>
        <mxCell id="VJPvkBXv1sEeALIUGJ7w-58" value="" style="curved=1;startArrow=none;endArrow=block;exitX=1;exitY=0.65;entryX=0.18;entryY=0;rounded=0;" parent="1" source="VJPvkBXv1sEeALIUGJ7w-7" target="VJPvkBXv1sEeALIUGJ7w-10" edge="1">
          <mxGeometry relative="1" as="geometry">
            <Array as="points">
              <mxPoint x="1914" y="515" />
            </Array>
          </mxGeometry>
        </mxCell>
      </root>
    </mxGraphModel>
  </diagram>
</mxfile>
